<?xml version="1.0" encoding="UTF-8" standalone="no"?>
<svg
   xmlns:dc="http://purl.org/dc/elements/1.1/"
   xmlns:cc="http://creativecommons.org/ns#"
   xmlns:rdf="http://www.w3.org/1999/02/22-rdf-syntax-ns#"
   xmlns:svg="http://www.w3.org/2000/svg"
   xmlns="http://www.w3.org/2000/svg"
   xmlns:sodipodi="http://sodipodi.sourceforge.net/DTD/sodipodi-0.dtd"
   xmlns:inkscape="http://www.inkscape.org/namespaces/inkscape"
   width="1278.6956pt"
   height="445.383pt"
   viewBox="0 0 1278.6955 445.383"
   xml:space="preserve"
   version="1.1"
   id="svg12535"
   sodipodi:docname="brand.svg"
   inkscape:version="0.92.4 5da689c313, 2019-01-14"
   inkscape:export-filename="/home/sainth/workspace/pgtune_frontend/images/brand.png"
   inkscape:export-xdpi="96"
   inkscape:export-ydpi="96"><metadata
   id="metadata12541"><rdf:RDF><cc:Work
       rdf:about=""><dc:format>image/svg+xml</dc:format><dc:type
         rdf:resource="http://purl.org/dc/dcmitype/StillImage" /><dc:title></dc:title></cc:Work></rdf:RDF></metadata><defs
   id="defs12539"><filter
     inkscape:label="Opacity"
     style="color-interpolation-filters:sRGB"
     id="filter13433"><feColorMatrix
       values="1 0 0 0 0 0 1 0 0 0 0 0 1 0 0 0 0 0 151.9 -151 "
       result="colormatrix"
       id="feColorMatrix13429" /><feComposite
       k4="0"
       k3="0"
       k1="0"
       in2="colormatrix"
       operator="arithmetic"
       k2="0.7"
       result="composite"
       id="feComposite13431" /></filter></defs><sodipodi:namedview
   pagecolor="#ffffff"
   bordercolor="#666666"
   borderopacity="1"
   objecttolerance="10"
   gridtolerance="10"
   guidetolerance="10"
   inkscape:pageopacity="0"
   inkscape:pageshadow="2"
   inkscape:window-width="1920"
   inkscape:window-height="1052"
   id="namedview12537"
   showgrid="false"
   inkscape:zoom="0.5620237"
   inkscape:cx="796.1206"
   inkscape:cy="109.37762"
   inkscape:window-x="0"
   inkscape:window-y="28"
   inkscape:window-maximized="1"
   inkscape:current-layer="svg12535"
   fit-margin-top="0"
   fit-margin-left="0"
   fit-margin-right="0"
   fit-margin-bottom="0" />
<g
   id="orginal"
   style="clip-rule:nonzero;fill-rule:nonzero;stroke:#000000;stroke-miterlimit:4"
   transform="translate(0,-66.830643)">
	</g>
<g
   id="Layer_x0020_3"
   style="clip-rule:nonzero;fill:none;fill-rule:nonzero;stroke:#ffffff;stroke-width:12.46510029;stroke-linecap:round;stroke-linejoin:round;stroke-miterlimit:4"
   transform="translate(0,-0.08062514)">
<path
   style="fill:#000000;stroke:#000000;stroke-width:37.39530182;stroke-linecap:butt;stroke-linejoin:miter"
   d="m 323.205,324.227 c 2.833,-23.601 1.984,-27.062 19.563,-23.239 l 4.463,0.392 c 13.517,0.615 31.199,-2.174 41.587,-7 22.362,-10.376 35.622,-27.7 13.572,-23.148 -50.297,10.376 -53.755,-6.655 -53.755,-6.655 C 401.746,185.774 423.948,85.741 404.784,61.255 352.514,-5.534 262.036,26.049 260.522,26.869 l -0.482,0.089 c -9.938,-2.062 -21.06,-3.294 -33.554,-3.496 -22.761,-0.374 -40.032,5.967 -53.133,15.904 0,0 -161.408,-66.498 -153.899,83.628 1.597,31.936 45.777,241.655 98.47,178.31 19.259,-23.163 37.871,-42.748 37.871,-42.748 9.242,6.14 20.307,9.272 31.912,8.147 l 0.897,-0.765 c -0.281,2.876 -0.157,5.689 0.359,9.019 -13.572,15.167 -9.584,17.83 -36.723,23.416 -27.457,5.659 -11.326,15.734 -0.797,18.367 12.768,3.193 42.305,7.716 62.268,-20.224 l -0.795,3.188 c 5.325,4.26 4.965,30.619 5.72,49.452 0.756,18.834 2.017,36.409 5.856,46.771 3.839,10.36 8.369,37.05 44.036,29.406 29.809,-6.388 52.6,-15.582 54.677,-101.107"
   id="path12510"
   inkscape:connector-curvature="0" />
<path
   style="fill:#336791;stroke:none"
   d="m 402.395,271.23 c -50.302,10.376 -53.76,-6.655 -53.76,-6.655 53.111,-78.808 75.313,-178.843 56.153,-203.326 -52.27,-66.785 -142.752,-35.2 -144.262,-34.38 l -0.486,0.087 c -9.938,-2.063 -21.06,-3.292 -33.56,-3.496 -22.761,-0.373 -40.026,5.967 -53.127,15.902 0,0 -161.411,-66.495 -153.904,83.63 1.597,31.938 45.776,241.657 98.471,178.312 19.26,-23.163 37.869,-42.748 37.869,-42.748 9.243,6.14 20.308,9.272 31.908,8.147 l 0.901,-0.765 c -0.28,2.876 -0.152,5.689 0.361,9.019 -13.575,15.167 -9.586,17.83 -36.723,23.416 -27.459,5.659 -11.328,15.734 -0.796,18.367 12.768,3.193 42.307,7.716 62.266,-20.224 l -0.796,3.188 c 5.319,4.26 9.054,27.711 8.428,48.969 -0.626,21.259 -1.044,35.854 3.147,47.254 4.191,11.4 8.368,37.05 44.042,29.406 29.809,-6.388 45.256,-22.942 47.405,-50.555 1.525,-19.631 4.976,-16.729 5.194,-34.28 l 2.768,-8.309 c 3.192,-26.611 0.507,-35.196 18.872,-31.203 l 4.463,0.392 c 13.517,0.615 31.208,-2.174 41.591,-7 22.358,-10.376 35.618,-27.7 13.573,-23.148 z"
   id="path12512"
   inkscape:connector-curvature="0" />
<path
   d="m 215.866,286.484 c -1.385,49.516 0.348,99.377 5.193,111.495 4.848,12.118 15.223,35.688 50.9,28.045 29.806,-6.39 40.651,-18.756 45.357,-46.051 3.466,-20.082 10.148,-75.854 11.005,-87.281"
   id="path12514"
   inkscape:connector-curvature="0" />
<path
   d="m 173.104,38.256 c 0,0 -161.521,-66.016 -154.012,84.109 1.597,31.938 45.779,241.664 98.473,178.316 19.256,-23.166 36.671,-41.335 36.671,-41.335"
   id="path12516"
   inkscape:connector-curvature="0" />
<path
   d="m 260.349,26.207 c -5.591,1.753 89.848,-34.889 144.087,34.417 19.159,24.484 -3.043,124.519 -56.153,203.329"
   id="path12518"
   inkscape:connector-curvature="0" />
<path
   style="stroke-linejoin:bevel"
   d="m 348.282,263.953 c 0,0 3.461,17.036 53.764,6.653 22.04,-4.552 8.776,12.774 -13.577,23.155 -18.345,8.514 -59.474,10.696 -60.146,-1.069 -1.729,-30.355 21.647,-21.133 19.96,-28.739 -1.525,-6.85 -11.979,-13.573 -18.894,-30.338 -6.037,-14.633 -82.796,-126.849 21.287,-110.183 3.813,-0.789 -27.146,-99.002 -124.553,-100.599 -97.385,-1.597 -94.19,119.762 -94.19,119.762"
   id="path12520"
   inkscape:connector-curvature="0" />
<path
   d="m 188.604,274.334 c -13.577,15.166 -9.584,17.829 -36.723,23.417 -27.459,5.66 -11.326,15.733 -0.797,18.365 12.768,3.195 42.307,7.718 62.266,-20.229 6.078,-8.509 -0.036,-22.086 -8.385,-25.547 -4.034,-1.671 -9.428,-3.765 -16.361,3.994 z"
   id="path12522"
   inkscape:connector-curvature="0" />
<path
   d="m 187.715,274.069 c -1.368,-8.917 2.93,-19.528 7.536,-31.942 6.922,-18.626 22.893,-37.255 10.117,-96.339 -9.523,-44.029 -73.396,-9.163 -73.436,-3.193 -0.039,5.968 2.889,30.26 -1.067,58.548 -5.162,36.913 23.488,68.132 56.479,64.938"
   id="path12524"
   inkscape:connector-curvature="0" />
<path
   style="fill:#ffffff;stroke-width:4.15500021;stroke-linecap:butt;stroke-linejoin:miter"
   d="m 172.517,141.7 c -0.288,2.039 3.733,7.48 8.976,8.207 5.234,0.73 9.714,-3.522 9.998,-5.559 0.284,-2.039 -3.732,-4.285 -8.977,-5.015 -5.237,-0.731 -9.719,0.333 -9.996,2.367 z"
   id="path12526"
   inkscape:connector-curvature="0" />
<path
   style="fill:#ffffff;stroke-width:2.0775001;stroke-linecap:butt;stroke-linejoin:miter"
   d="m 331.941,137.543 c 0.284,2.039 -3.732,7.48 -8.976,8.207 -5.238,0.73 -9.718,-3.522 -10.005,-5.559 -0.277,-2.039 3.74,-4.285 8.979,-5.015 5.239,-0.73 9.718,0.333 10.002,2.368 z"
   id="path12528"
   inkscape:connector-curvature="0" />
<path
   d="m 350.676,123.432 c 0.863,15.994 -3.445,26.888 -3.988,43.914 -0.804,24.748 11.799,53.074 -7.191,81.435"
   id="path12530"
   inkscape:connector-curvature="0" />
<path
   style="stroke-width:3"
   d="M 0,60.232"
   id="path12532"
   inkscape:connector-curvature="0" />
</g>
<g
   transform="matrix(2.8346457,0,0,2.8346457,-1.7046576,112.54612)"
   id="g13498"><circle
   r="45.887383"
   cy="85.900505"
   cx="110.9365"
   id="path13149"
   style="fill:#ffffff;fill-opacity:1;stroke:none;stroke-width:2.72523141;stroke-miterlimit:4;stroke-dasharray:none;stroke-opacity:1;filter:url(#filter13433)" /><text
   x="84.120407"
   y="115.4011"
   style="font-size:4.62169266px;text-align:center;text-anchor:middle;stroke-width:0.87339079"
   id="text12216">0</text>

<path
   d="m 78.60445,98.242369 -6.495441,2.422671"
   style="fill:none;stroke:#000000;stroke-width:1.74678159"
   inkscape:label="none"
   id="path12218"
   inkscape:connector-curvature="0" /><text
   x="73.049835"
   y="85.719757"
   style="font-size:4.62169266px;text-align:center;text-anchor:middle;stroke-width:0.87339079"
   id="text12224">2</text>

<path
   d="M 80.658933,69.516937 74.574389,66.194524"
   style="fill:none;stroke:#000000;stroke-width:1.74678159"
   inkscape:label="none"
   id="path12226"
   inkscape:connector-curvature="0" /><text
   x="88.231819"
   y="57.916035"
   style="font-size:4.62169266px;text-align:center;text-anchor:middle;stroke-width:0.87339079"
   id="text12232">4</text>

<path
   d="m 103.71357,52.258453 -1.47362,-6.77411"
   style="fill:none;stroke:#000000;stroke-width:1.74678159"
   inkscape:label="none"
   id="path12234"
   inkscape:connector-curvature="0" /><text
   x="119.18655"
   y="51.182247"
   style="font-size:4.62169266px;text-align:center;text-anchor:middle;stroke-width:0.87339079"
   id="text12240">6</text>

<path
   d="m 131.85424,58.380081 4.15451,-5.549786"
   style="fill:none;stroke:#000000;stroke-width:1.74678159"
   inkscape:label="none"
   id="path12242"
   inkscape:connector-curvature="0" /><text
   x="144.54665"
   y="70.166573"
   style="font-size:4.62169266px;text-align:center;text-anchor:middle;stroke-width:0.87339079"
   id="text12248">8</text>

<path
   d="m 145.65604,83.656191 6.91487,-0.494562"
   style="fill:none;stroke:#000000;stroke-width:1.74678159"
   inkscape:label="none"
   id="path12250"
   inkscape:connector-curvature="0" /><text
   x="146.80658"
   y="101.76456"
   style="font-size:4.62169266px;text-align:center;text-anchor:middle;stroke-width:0.87339079"
   id="text12256">10</text>

<text
   x="138.04291"
   y="115.4011"
   style="font-size:4.62169266px;text-align:center;text-anchor:middle;stroke-width:0.87339079"
   id="text12260">11</text>

<circle
   r="27.845881"
   cy="85.900497"
   cx="110.9365"
   id="path12372"
   style="fill:#ffffff;fill-opacity:1;stroke:#000000;stroke-width:4.30823898;stroke-miterlimit:4;stroke-dasharray:none;stroke-opacity:1" /><path
   inkscape:connector-curvature="0"
   id="path12483"
   d="m 110.91989,85.798828 17.91576,18.758202"
   style="fill:none;stroke:#000000;stroke-width:2.5;stroke-linecap:butt;stroke-linejoin:miter;stroke-miterlimit:4;stroke-dasharray:none;stroke-opacity:1" /><path
   transform="rotate(3.2803222,112.12758,130.98072)"
   inkscape:transform-center-y="-0.16228889"
   inkscape:transform-center-x="0.19245753"
   d="m 132.36524,108.24089 -2.31351,-0.53518 1.62023,-1.73596 z"
   inkscape:randomized="0"
   inkscape:rounded="0"
   inkscape:flatsided="true"
   sodipodi:arg2="1.7981266"
   sodipodi:arg1="0.75092906"
   sodipodi:r2="0.685489"
   sodipodi:r1="1.370978"
   sodipodi:cy="107.30545"
   sodipodi:cx="131.36298"
   sodipodi:sides="3"
   id="path12485"
   style="fill:none;fill-opacity:0.39215686;stroke:#000000;stroke-width:2.26499987;stroke-miterlimit:4;stroke-dasharray:none;stroke-opacity:1"
   sodipodi:type="star" /></g><text
   xml:space="preserve"
   style="font-style:normal;font-variant:normal;font-weight:normal;font-stretch:normal;font-size:30px;line-height:1.25;font-family:Strait;-inkscape-font-specification:Strait;letter-spacing:0px;word-spacing:0px;fill:#000000;fill-opacity:1;stroke:none;stroke-width:0.75"
   x="483.12732"
   y="301.87393"
   id="text13621"><tspan
     sodipodi:role="line"
     id="tspan13619"
     x="483.12732"
     y="301.87393"
     style="font-style:normal;font-variant:normal;font-weight:normal;font-stretch:normal;font-size:144px;font-family:Strait;-inkscape-font-specification:Strait;letter-spacing:0px;stroke-width:0.75">pg<tspan
   style="font-style:normal;font-variant:normal;font-weight:normal;font-stretch:normal;font-size:288px;font-family:'Fira Sans';-inkscape-font-specification:'Fira Sans';letter-spacing:0px"
   id="tspan847"
   dx="-36.75">Tune</tspan></tspan></text>

</svg>